<?xml version="1.0" encoding="UTF-8"?>
<svg version="1.1" xmlns="http://www.w3.org/2000/svg" width="941" height="358">
<path d="M0 0 C11.35738693 2.20166839 21.73557861 11.48945392 28.20507812 20.71923828 C32.47905373 27.3272674 36.1495521 34.30764219 38 42 C38.18046875 42.721875 38.3609375 43.44375 38.546875 44.1875 C41.33331945 61.48267245 37.9201503 77.53311415 28 92 C26.74222245 93.53164847 25.4720102 95.05320052 24.1875 96.5625 C20.37045276 101.33596315 19.04293744 105.90288388 19 112 C19.91746598 118.43152922 22.09185888 123.61400155 27 128 C33.38200321 131.46730225 39.30189578 133.3190261 46.4765625 131.3046875 C54.89246801 128.35043158 58.07293624 123.95212265 62.125 116.3125 C69.40496274 100.94577453 70.56766326 84.18372585 65 68 C64.64339152 66.33815787 64.30378723 64.67230446 64 63 C64.66 63 65.32 63 66 63 C78.72947676 76.63687327 88.61762161 92.78509075 93 111 C93.27034058 112.11000366 93.27034058 112.11000366 93.54614258 113.24243164 C95.38945861 121.82377672 95.19180481 130.34244811 95.0625 139.0625 C95.02561932 142.03251693 94.9953034 145.00249642 94.97265625 147.97265625 C94.96447624 149.04081573 94.96447624 149.04081573 94.95613098 150.1305542 C94.94368411 154.68230434 95.22028366 159.10002012 95.76196289 163.61401367 C97.1829165 177.85706969 96.56244055 192.93603029 94 207 C93.88172852 207.65274902 93.76345703 208.30549805 93.64160156 208.97802734 C87.74228408 240.23840559 72.07835497 267.43605071 50 290 C49.38898438 290.66128906 48.77796875 291.32257813 48.1484375 292.00390625 C29.11968819 312.20437658 1.53286706 325.38744746 -25 332 C-25.67659668 332.17789062 -26.35319336 332.35578125 -27.05029297 332.5390625 C-62.82616814 341.5885185 -105.78422303 334.46392796 -137.4296875 316.1796875 C-175.21986788 293.43850851 -202.41794966 259.5519941 -213.8125 216.625 C-216.5709121 203.99112269 -217.40683597 191.82291578 -217.375 178.9375 C-217.37412384 178.07183411 -217.37324768 177.20616821 -217.37234497 176.31427002 C-217.32943213 163.46922422 -216.77053541 151.36179787 -213 139 C-212.75330566 138.14889648 -212.50661133 137.29779297 -212.25244141 136.42089844 C-200.40159459 96.04508517 -173.9135566 61.5980997 -136.984375 41.07470703 C-99.4209221 20.7309177 -56.04283211 16.29588203 -14.99584961 28.19799805 C-13.64391202 28.60035475 -12.29286349 29.00571501 -10.94287109 29.41455078 C-7.97136247 30.3099614 -4.98565019 31.15309008 -2 32 C2.90386639 26.06374069 5.48515932 20.35348219 4.7734375 12.5 C3.95523772 8.28419095 2.88057239 5.27337772 0 2 C0 1.34 0 0.68 0 0 Z " fill="#FDC30D" transform="translate(217,13)"/>
<path d="M0 0 C11.35738693 2.20166839 21.73557861 11.48945392 28.20507812 20.71923828 C32.47905373 27.3272674 36.1495521 34.30764219 38 42 C38.18046875 42.721875 38.3609375 43.44375 38.546875 44.1875 C41.33331945 61.48267245 37.9201503 77.53311415 28 92 C26.74222245 93.53164847 25.4720102 95.05320052 24.1875 96.5625 C20.37045276 101.33596315 19.04293744 105.90288388 19 112 C19.91746598 118.43152922 22.09185888 123.61400155 27 128 C33.38200321 131.46730225 39.30189578 133.3190261 46.4765625 131.3046875 C54.89246801 128.35043158 58.07293624 123.95212265 62.125 116.3125 C69.40496274 100.94577453 70.56766326 84.18372585 65 68 C64.64339152 66.33815787 64.30378723 64.67230446 64 63 C64.66 63 65.32 63 66 63 C84.26442046 82.56636489 95.46896639 106.47992861 95.3125 133.4375 C95.30512817 134.9534375 95.30512817 134.9534375 95.29760742 136.5 C95.18369897 143.74340924 94.37627415 150.12988482 92 157 C91.6596875 158.16144531 91.319375 159.32289063 90.96875 160.51953125 C86.82089159 174.12618841 80.63452673 186.42387903 71 197 C70.12730469 197.96550781 69.25460937 198.93101562 68.35546875 199.92578125 C51.48594974 217.97639704 28.79284914 229.06990484 4 230 C-21.98900532 230.86693763 -45.19632757 224.26008147 -65 207 C-65.91458984 206.28263672 -65.91458984 206.28263672 -66.84765625 205.55078125 C-76.77615693 197.65773629 -83.13094949 187.01780845 -89 176 C-89.4228125 175.22398437 -89.845625 174.44796875 -90.28125 173.6484375 C-100.55563411 154.11154044 -101.59367075 127.16593465 -95.1953125 106.29296875 C-94.80085938 105.20628906 -94.40640625 104.11960937 -94 103 C-93.62617187 101.94425781 -93.25234375 100.88851562 -92.8671875 99.80078125 C-82.62873253 73.32318744 -62.54191642 54.49089929 -37 43 C-31.11637254 40.83267651 -25.16294219 39.38905086 -19.0078125 38.2421875 C-18.3389502 38.11634277 -17.67008789 37.99049805 -16.98095703 37.86083984 C-15.11609262 37.52114677 -13.24562359 37.21264524 -11.375 36.90625 C-5.45131592 35.31563113 -1.36929618 32.0848078 1.95703125 27.046875 C5.13811491 20.80384939 5.52269194 14.60982894 3.71484375 7.91015625 C2.84517401 5.58628464 1.63407121 3.85689911 0 2 C0 1.34 0 0.68 0 0 Z " fill="#F47F20" transform="translate(217,13)"/>
<path d="M0 0 C11.35738693 2.20166839 21.73557861 11.48945392 28.20507812 20.71923828 C32.47905373 27.3272674 36.1495521 34.30764219 38 42 C38.18046875 42.721875 38.3609375 43.44375 38.546875 44.1875 C41.33331945 61.48267245 37.9201503 77.53311415 28 92 C26.74222245 93.53164847 25.4720102 95.05320052 24.1875 96.5625 C20.37045276 101.33596315 19.04293744 105.90288388 19 112 C19.91746598 118.43152922 22.09185888 123.61400155 27 128 C34.73421575 132.20195083 40.98421017 132.97789281 49.4375 130.5 C50.96140553 130.00944323 52.48338673 129.51265801 54 129 C47.73770374 137.85359127 38.04201212 142.53213657 28 146 C27.14792969 146.35449219 26.29585938 146.70898438 25.41796875 147.07421875 C11.14950169 150.93893497 -5.08541529 148.94380068 -18 142 C-21.93758375 139.59962567 -25.50043692 136.9996255 -29 134 C-29.98033203 133.16855469 -29.98033203 133.16855469 -30.98046875 132.3203125 C-42.26622831 121.90652112 -48.41735348 107.4465765 -49.1875 92.31640625 C-49.367072 81.17171913 -48.13440165 71.92764705 -43 62 C-42.60167969 61.20851562 -42.20335937 60.41703125 -41.79296875 59.6015625 C-36.64849571 50.20215066 -29.26085277 41.64168659 -19 38 C-16.12109375 37.41015625 -16.12109375 37.41015625 -13.4375 37.0625 C-7.2025442 36.00486044 -3.25721007 33.79715109 0.75 28.875 C4.52683221 23.15474928 5.6122211 16.82186804 4.3125 10.125 C3.42930386 6.85197901 2.26221748 4.57070168 0 2 C0 1.34 0 0.68 0 0 Z " fill="#DB1D40" transform="translate(217,13)"/>
<path d="M0 0 C8.24006853 7.07160977 13.19808152 14.21953815 15.33203125 24.95703125 C15.53510103 27.68522955 15.48425456 30.21701161 15.33203125 32.95703125 C10.71203125 32.95703125 6.09203125 32.95703125 1.33203125 32.95703125 C0.74421875 30.20359375 0.74421875 30.20359375 0.14453125 27.39453125 C-1.22682852 21.81019602 -3.09755207 18.39592767 -6.66796875 13.95703125 C-6.66796875 13.29703125 -6.66796875 12.63703125 -6.66796875 11.95703125 C-7.23257813 11.67859375 -7.7971875 11.40015625 -8.37890625 11.11328125 C-9.89693931 10.34649322 -11.40269414 9.55486577 -12.89453125 8.73828125 C-26.10745882 1.67990952 -38.44521312 1.84122799 -52.66796875 5.95703125 C-59.06128438 8.59015969 -62.7766985 12.715362 -65.66796875 18.95703125 C-67.41912077 24.60087152 -67.22949502 30.08527703 -65.54296875 35.70703125 C-62.1220609 41.63660486 -57.73154422 44.36153234 -51.29296875 46.26953125 C-50.64086426 46.46554932 -49.98875977 46.66156738 -49.31689453 46.86352539 C-44.24764827 48.3389528 -39.12551811 49.59363271 -33.99609375 50.83984375 C-33.3074826 51.00814194 -32.61887146 51.17644012 -31.90939331 51.34983826 C-28.43273412 52.19827193 -24.95384051 53.03228295 -21.46728516 53.83911133 C-7.04094606 57.25181375 6.96560184 61.7258793 16.01953125 74.30078125 C20.79943906 82.66561991 21.24452135 91.91156888 19.26953125 101.20703125 C16.60456433 110.31833706 11.23274823 117.65905883 3.33203125 122.95703125 C-8.21870434 128.82580122 -18.47763194 130.31933022 -31.29296875 130.33203125 C-32.57042969 130.35652344 -33.84789062 130.38101563 -35.1640625 130.40625 C-48.9668503 130.44820376 -63.37424478 127.35605554 -73.94921875 117.921875 C-84.10943328 107.17403612 -85.8126376 97.27924734 -85.66796875 82.95703125 C-81.04796875 82.95703125 -76.42796875 82.95703125 -71.66796875 82.95703125 C-71.44109375 85.08140625 -71.21421875 87.20578125 -70.98046875 89.39453125 C-69.6847629 98.31150692 -66.90337757 105.06852249 -59.66015625 110.6796875 C-51.6795937 115.79663643 -42.96392861 117.05092686 -33.66796875 117.95703125 C-32.93707031 118.03050781 -32.20617187 118.10398438 -31.453125 118.1796875 C-21.17416398 118.67951013 -9.72130766 115.32127849 -1.91796875 108.58203125 C3.8626954 101.83792308 5.11898858 97.44551451 4.82421875 88.59375 C4.08201642 83.10969948 2.5008317 80.4780202 -1.66796875 76.95703125 C-11.86242022 70.32265331 -23.69879275 68.1102759 -35.35546875 65.33203125 C-38.25099252 64.63507275 -41.14524886 63.93376998 -44.03730774 63.2225647 C-45.82276809 62.78410242 -47.61025654 62.35378025 -49.40007019 61.93344116 C-61.23381123 59.04429677 -71.47874586 54.12360908 -78.66796875 43.95703125 C-82.8076521 36.26071854 -82.7763859 27.11712011 -80.9765625 18.73828125 C-77.58793495 7.50902176 -71.77722679 0.81445429 -61.66796875 -5.04296875 C-42.97957804 -14.11233483 -16.68522164 -12.77653136 0 0 Z " fill="#231F20" transform="translate(491.66796875,132.04296875)"/>
<path d="M0 0 C9.05314804 7.97385815 14.26459091 19.16766532 16 31 C16.495 38.92 16.495 38.92 17 47 C-7.75 47 -32.5 47 -58 47 C-54.75843437 65.31076316 -54.75843437 65.31076316 -43.01171875 78.37109375 C-34.64127618 83.77286016 -25.76986477 84.40035411 -16.03515625 82.38671875 C-8.52178304 79.75877465 -4.08395778 75.0145278 -0.4609375 68.03515625 C0.75942086 65.38650138 1.88793499 62.69591516 3 60 C7.29 59.67 11.58 59.34 16 59 C14.2669033 70.95836724 9.10674405 80.65659895 0 88.625 C-11.46313512 96.19360845 -25.85574011 96.45474662 -39.05078125 94.5625 C-49.25356263 91.95891942 -57.44982173 85.76481805 -63.27734375 77.11328125 C-71.97732646 61.39018325 -73.68472011 42.17655902 -69.375 24.8125 C-65.37238691 12.10490321 -59.22656013 2.38559351 -47.5625 -4.375 C-31.80095682 -12.33144429 -14.10655645 -10.52210358 0 0 Z M-49 12 C-53.79770154 18.84039105 -58 27.49507356 -58 36 C-37.87 36 -17.74 36 3 36 C1.84592697 24.45926969 0.01114009 15.76822422 -9 8 C-22.17398437 -1.0374432 -37.94807252 0.3764211 -49 12 Z " fill="#231F20" transform="translate(595,168)"/>
<path d="M0 0 C12.97022644 11.42395389 15.76791324 26.81181195 16.94921875 43.19140625 C16.96597656 44.11824219 16.98273438 45.04507813 17 46 C16 47 16 47 13.07041931 47.12025452 C11.75803787 47.11803391 10.44565643 47.11581329 9.09350586 47.11352539 C8.37159561 47.11367142 7.64968536 47.11381744 6.90589905 47.1139679 C4.50885053 47.11326869 2.11187877 47.10547595 -0.28515625 47.09765625 C-1.94282489 47.0957921 -3.60049407 47.09436818 -5.25816345 47.09336853 C-9.62954214 47.08954312 -14.00088781 47.07971265 -18.37225342 47.06866455 C-22.82954461 47.05845092 -27.28684111 47.05387101 -31.74414062 47.04882812 C-40.49610893 47.0380904 -49.24805036 47.02101371 -58 47 C-57.55709214 49.38445278 -57.10532749 51.76665859 -56.6484375 54.1484375 C-56.46365845 55.15088501 -56.46365845 55.15088501 -56.27514648 56.17358398 C-54.48781857 65.39213649 -50.87981794 72.94535148 -43.01171875 78.37109375 C-34.64127618 83.77286016 -25.76986477 84.40035411 -16.03515625 82.38671875 C-8.52178304 79.75877465 -4.08395778 75.0145278 -0.4609375 68.03515625 C0.75942086 65.38650138 1.88793499 62.69591516 3 60 C7.29 59.67 11.58 59.34 16 59 C14.2669033 70.95836724 9.10674405 80.65659895 0 88.625 C-11.4080367 96.15722936 -26.01513696 96.60647549 -39.15625 94.4921875 C-47.02668599 92.37882969 -53.61957277 88.08837818 -59 82 C-59.48210938 81.47148437 -59.96421875 80.94296875 -60.4609375 80.3984375 C-71.55175145 67.16827872 -72.07134101 49.38538714 -71 33 C-69.2018914 19.13848312 -62.93783796 6.76791204 -52 -2 C-35.68532429 -12.49167039 -15.4668138 -11.53672177 0 0 Z M-49.6875 12.93359375 C-54.43481339 19.40180824 -58 27.90089342 -58 36 C-37.87 36 -17.74 36 3 36 C1.90550966 25.05509657 -0.44347559 16.97439673 -8 9 C-21.07867077 -1.69086366 -38.7123224 0.35786941 -49.6875 12.93359375 Z " fill="#231F20" transform="translate(727,168)"/>
<path d="M0 0 C9.06331518 8.24320081 13.03419534 19.67097672 15.375 31.375 C15.375 36.325 15.375 41.275 15.375 46.375 C-9.045 46.375 -33.465 46.375 -58.625 46.375 C-55.76797568 63.54632163 -55.76797568 63.54632163 -45.6875 76.9375 C-44.3542517 77.78388796 -43.0009702 78.59999702 -41.625 79.375 C-40.614375 79.99375 -39.60375 80.6125 -38.5625 81.25 C-31.36771265 84.01213675 -21.61129679 83.63147964 -14.5625 80.6875 C-6.1613302 76.13226909 -1.80144642 70.15006708 1.1015625 61.11328125 C2.375 59.375 2.375 59.375 5.4140625 58.765625 C6.59742188 58.71921875 7.78078125 58.6728125 9 58.625 C10.18851563 58.56828125 11.37703125 58.5115625 12.6015625 58.453125 C13.51679687 58.42734375 14.43203125 58.4015625 15.375 58.375 C13.83064391 70.64996824 8.19674449 80.74437791 -1.625 88.375 C-13.38374377 95.11732496 -26.55354194 95.94249408 -39.8125 93.87890625 C-50.71801165 90.86285068 -59.12689048 83.97459629 -64.98046875 74.4609375 C-72.7693367 59.84524704 -74.08945571 40.82685946 -70.5625 24.75 C-66.60217734 12.0953876 -59.51436055 0.79692541 -47.625 -5.5625 C-31.29951598 -12.84617749 -14.08653112 -10.87932984 0 0 Z M-50.3125 12.30859375 C-55.05981339 18.77680824 -58.625 27.27589342 -58.625 35.375 C-38.495 35.375 -18.365 35.375 2.375 35.375 C1.28050966 24.43009657 -1.06847559 16.34939673 -8.625 8.375 C-21.70367077 -2.31586366 -39.3373224 -0.26713059 -50.3125 12.30859375 Z " fill="#231F20" transform="translate(925.625,168.625)"/>
<path d="M0 0 C2.02816513 1.44706164 3.83580668 2.9687816 5.6484375 4.67578125 C7.0096875 5.94421875 7.0096875 5.94421875 8.3984375 7.23828125 C15.66399265 16.76192341 15.19557507 29.55195418 15.0390625 40.9140625 C15.03158177 42.53215325 15.02589753 44.15025319 15.02191162 45.76835632 C15.00679909 49.98198434 14.96764591 54.19504143 14.9230957 58.40844727 C14.88182832 62.72599571 14.86383414 67.04363839 14.84375 71.36132812 C14.80113374 79.79976755 14.7309063 88.23763713 14.6484375 96.67578125 C10.3584375 96.67578125 6.0684375 96.67578125 1.6484375 96.67578125 C1.6187085 93.65659546 1.6187085 93.65659546 1.58837891 90.57641602 C1.5212346 83.89876648 1.4435997 77.22126789 1.36091042 70.54379368 C1.31113278 66.49838703 1.26480238 62.45300417 1.2265625 58.4074707 C1.18947395 54.49753523 1.14305283 50.5878083 1.09037399 46.6780529 C1.07195442 45.19229762 1.05680145 43.70649785 1.04509354 42.22067451 C1.04874353 25.37035237 1.04874353 25.37035237 -7.6015625 11.42578125 C-15.01836801 6.70599592 -22.9445697 7.22557499 -31.3515625 8.67578125 C-38.11489342 10.86519286 -42.88015204 15.02849975 -46.5390625 21.11328125 C-51.62746117 31.11461657 -51.48986254 40.90766816 -51.4140625 51.890625 C-51.41027588 53.14210831 -51.40648926 54.39359161 -51.40258789 55.68299866 C-51.39041691 59.65978993 -51.37195489 63.63652611 -51.3515625 67.61328125 C-51.32477533 72.87239061 -51.30506077 78.13146872 -51.2890625 83.390625 C-51.28076416 84.6071727 -51.27246582 85.8237204 -51.26391602 87.07713318 C-51.25896118 88.75006187 -51.25896118 88.75006187 -51.25390625 90.45678711 C-51.24866943 91.44303574 -51.24343262 92.42928436 -51.23803711 93.44541931 C-51.3515625 95.67578125 -51.3515625 95.67578125 -52.3515625 96.67578125 C-56.6415625 96.67578125 -60.9315625 96.67578125 -65.3515625 96.67578125 C-65.3515625 64.33578125 -65.3515625 31.99578125 -65.3515625 -1.32421875 C-61.0615625 -1.32421875 -56.7715625 -1.32421875 -52.3515625 -1.32421875 C-52.0215625 2.96578125 -51.6915625 7.25578125 -51.3515625 11.67578125 C-50.4028125 10.47953125 -49.4540625 9.28328125 -48.4765625 8.05078125 C-36.63926271 -5.46386871 -15.82084101 -8.90907824 0 0 Z " fill="#231F20" transform="translate(822.3515625,163.32421875)"/>
<path d="M0 0 C4.29 0 8.58 0 13 0 C13 44.55 13 89.1 13 135 C8.71 135 4.42 135 0 135 C0 90.45 0 45.9 0 0 Z " fill="#231F20" transform="translate(626,125)"/>
</svg>
